<svg viewBox="0 0 800 800" xmlns="http://www.w3.org/2000/svg"><path d="M622.5574229401038,169.07431231479674 L622.7932905981115,146.70180813513818 M-18.88167168950787,535.3216508210396 L-19.35972831855696,512.5365945594272 M622.5574229401038,169.07431231479674 L-18.88167168950787,535.3216508210396 M622.7932905981115,146.70180813513818 L-19.35972831855696,512.5365945594272 M634.0366440780613,169.07431231479674 L634.2849838375794,146.70180813513818 M634.0366440780613,169.07431231479674 L632.6009621648964,168.43523714930527 M632.6009621648964,168.43523714930527 L630.9533457563125,167.99056451511365 M630.9533457563125,167.99056451511365 L629.1763157883247,167.76253183114588 M629.1763157883247,167.76253183114588 L627.3589231518686,167.7625277163895 M627.3589231518686,167.7625277163895 L625.592145083395,167.99056863005876 M625.592145083395,167.99056863005876 L623.9644485864808,168.4352494952452 M623.9644485864808,168.4352494952452 L622.5574229401038,169.07431231479674 M634.2849838375794,146.70180813513818 L632.8477261835992,146.0634784396073 M632.8477261835992,146.0634784396073 L631.1983087951037,145.619324560844 M631.1983087951037,145.619324560844 L629.419342724623,145.39155791672184 M629.419342724623,145.39155791672184 L627.5999757632421,145.39155380676615 M627.5999757632421,145.39155380676615 L625.8312838471913,145.6193286709884 M625.8312838471913,145.6193286709884 L624.2018296917124,146.0634907711452 M624.2018296917124,146.0634907711452 L622.7932905981115,146.70180813513818 M-19.16837647015808,542.2857920213467 L-19.64707966569233,519.4931748898089 M-18.88167168950787,535.3216508210396 L-20.092263964229062,536.183267941233 M-20.092263964229062,536.183267941233 L-20.951117603164107,537.1763774465096 M-20.951117603164107,537.1763774465096 L-21.41505913461748,538.2512135623224 M-21.41505913461748,538.2512135623224 L-21.460706754790806,539.3539231460634 M-21.460706754790806,539.3539231460634 L-21.085669861853432,540.429231102423 M-21.085669861853432,540.429231102423 L-20.308603247758754,541.4231500660208 M-20.308603247758754,541.4231500660208 L-19.16837647015808,542.2857920213467 M-19.35972831855696,512.5365945594272 L-20.57172452610274,513.3972756600044 M-20.57172452610274,513.3972756600044 L-21.431592138082408,514.3893064997264 M-21.431592138082408,514.3893064997264 L-21.896106628859457,515.4629754253212 M-21.896106628859457,515.4629754253212 L-21.941857200460674,516.5644878125347 M-21.941857200460674,516.5644878125347 L-21.566447825701232,517.6386285776305 M-21.566447825701232,517.6386285776305 L-20.788551664691056,518.6314689180508 M-20.788551664691056,518.6314689180508 L-19.64707966569233,519.4931748898089 M-19.16837647015808,542.2857920213467 L165.76663770113458,653.1654063881476 M165.76663770113458,653.1654063881476 L167.2408557127175,653.868328986181 M167.2408557127175,653.868328986181 L168.94725334855053,654.3575363355046 M168.94725334855053,654.3575363355046 L170.8002019201552,654.6084416655372 M170.8002019201552,654.6084416655372 L172.70660758619715,654.6084461932339 M172.70660758619715,654.6084461932339 L174.5707736302544,654.3575318080259 M174.5707736302544,654.3575318080259 L176.29911755633006,653.8683154050193 M176.29911755633006,653.8683154050193 L177.80483908604305,653.1654063881476 M177.80483908604305,653.1654063881476 L819.248226306061,278.64789505997487 M819.248226306061,278.64789505997487 L820.3601739373621,277.82879008740133 M820.3601739373621,277.82879008740133 L821.1184185738164,276.88501597199706 M821.1184185738164,276.88501597199706 L821.4849952466207,275.8639797575419 M821.4849952466207,275.8639797575419 L821.4416359899351,274.8169019976045 M821.4416359899351,274.8169019976045 L820.9906690565795,273.79626916656173 M820.9906690565795,273.79626916656173 L820.1547926886713,272.8532606351564 M820.1547926886713,272.8532606351564 L818.9759858163932,272.03509562849024 M818.9759858163932,272.03509562849024 L634.0366440780613,169.07431231479674 M819.4299192020908,249.54365393208985 L634.2849838375794,146.70180813513818 M-19.64707966569233,519.4931748898089 L165.49350883742775,630.2538353942687 M819.7027579257697,256.14889353661493 L820.8158898290046,255.33072445602343 M820.8158898290046,255.33072445602343 L821.5749243953985,254.38802885855 M821.5749243953985,254.38802885855 L821.9418572004606,253.36815967393676 M821.9418572004606,253.36815967393676 L821.8984026722314,252.32227894535572 M821.8984026722314,252.32227894535572 L821.4468941473006,251.30281314390578 M821.4468941473006,251.30281314390578 L820.6100572416265,250.36088308572607 M820.6100572416265,250.36088308572607 L819.4299192020908,249.54365393208985 M165.49350883742775,630.2538353942687 L166.9693883395198,630.9560124462862 M166.9693883395198,630.9560124462862 L168.67771781893273,631.4447009876596 M168.67771781893273,631.4447009876596 L170.5327715518085,631.6953402510403 M170.5327715518085,631.6953402510403 L172.44134979320583,631.6953447739356 M172.44134979320583,631.6953447739356 L174.30764661500908,631.4446964649819 M174.30764661500908,631.4446964649819 L176.0379724141229,630.9559988795281 M176.0379724141229,630.9559988795281 L177.54542728045124,630.2538353942687 M177.54542728045124,630.2538353942687 L819.7027579257697,256.14889353661493 M561.0766514725713,244.99793415988984 L555.1242181662722,245.18168412380984 M555.1242181662722,245.18168412380984 L549.3132852170386,245.91349079952465 M549.3132852170386,245.91349079952465 L543.5806667154866,247.25224597557397 M543.5806667154866,247.25224597557397 L538.1591340205632,249.17467193558264 M538.1591340205632,249.17467193558264 L535.3335655538644,250.46643243755813 M535.3335655538644,250.46643243755813 L532.688372675387,251.87771271754718 M590.9471084083273,253.00644799128207 L585.0758937910823,250.08451075505914 M585.0758937910823,250.08451075505914 L579.2242440978721,247.8875351518109 M579.2242440978721,247.8875351518109 L573.5284500400287,246.3765545579772 M573.5284500400287,246.3765545579772 L567.8643027254154,245.43884182441766 M567.8643027254154,245.43884182441766 L564.4868595274856,245.13010321868467 M564.4868595274856,245.13010321868467 L561.0766514725713,244.99793415988984 M532.688372675387,251.87771271754718 L528.063950617835,254.9156759085913 M528.063950617835,254.9156759085913 L524.6664528725851,257.97447798312527 M524.6664528725851,257.97447798312527 L522.4087821355101,260.99139873796815 M522.4087821355101,260.99139873796815 L521.1138755879081,264.0301754331235 M521.1138755879081,264.0301754331235 L520.7101372328791,267.4721687299099 M520.7101372328791,267.4721687299099 L520.9861926770957,269.6540613494414 M520.9861926770957,269.6540613494414 L521.6342940020359,271.81301168236627 M592.8958575257232,254.10317609793657 L590.9471084083273,253.00644799128207 M521.6342940020359,271.81301168236627 L533.0447417648352,271.00371931767444 M605.9395483600797,265.37465606342624 L603.0676443490581,261.70476627516564 M603.0676443490581,261.70476627516564 L599.2936893332633,258.30602711003064 M599.2936893332633,258.30602711003064 L596.2430593877732,256.1319531800657 M596.2430593877732,256.1319531800657 L592.8958575257232,254.10317609793657 M533.0447417648352,271.00371931767444 L532.725342193665,267.7475517602328 M532.725342193665,267.7475517602328 L533.012818667785,265.7200386459857 M533.012818667785,265.7200386459857 L533.6903524177899,263.72595252638484 M607.6568865129218,277.3520715544703 L608.365976106887,274.0612602054564 M608.365976106887,274.0612602054564 L608.1624921465909,270.7439462072166 M608.1624921465909,270.7439462072166 L607.3245776112083,268.0243811986947 M607.3245776112083,268.0243811986947 L605.9395483600797,265.37465606342624 M533.6903524177899,263.72595252638484 L535.2980350036325,261.2777504123162 M535.2980350036325,261.2777504123162 L537.7283870740307,259.05432246587657 M537.7283870740307,259.05432246587657 L540.7540937852725,257.0719957399667 M598.2993462077338,287.441707587788 L601.9901709629851,284.93740968988044 M601.9901709629851,284.93740968988044 L604.8925377682426,282.116564033361 M604.8925377682426,282.116564033361 L606.5308830018014,279.7841880312886 M606.5308830018014,279.7841880312886 L607.6568865129218,277.3520715544703 M540.7540937852725,257.0719957399667 L544.752981369408,255.1672898427392 M544.752981369408,255.1672898427392 L548.8724194137553,253.89136459788898 M548.8724194137553,253.89136459788898 L553.6207310188881,253.10033901330556 M553.6207310188881,253.10033901330556 L556.3920213375707,252.91662389803892 M556.3920213375707,252.91662389803892 L559.1862570481055,252.90968833339738 M571.8248328546481,293.58325463862246 L577.2331653064346,293.583552055878 M577.2331653064346,293.583552055878 L582.5424478231014,293.03000641260644 M582.5424478231014,293.03000641260644 L587.841837794859,291.8646531878941 M587.841837794859,291.8646531878941 L592.9301936207844,290.0958378628479 M592.9301936207844,290.0958378628479 L595.708528227809,288.8305690212047 M595.708528227809,288.8305690212047 L598.2993462077338,287.441707587788 M559.1862570481055,252.90968833339738 L564.045354161241,253.29676757114566 M564.045354161241,253.29676757114566 L568.7116193326672,254.1761171102526 M568.7116193326672,254.1761171102526 L573.6959914795877,255.71597376267385 M573.6959914795877,255.71597376267385 L576.5626962714457,256.9062053745498 M576.5626962714457,256.9062053745498 L579.2413415125989,258.23418788043205 M542.3750726737949,284.45488257622543 L549.1655150300041,287.9033878233009 M549.1655150300041,287.9033878233009 L555.2083989097473,290.301985020956 M555.2083989097473,290.301985020956 L561.249414130591,292.06162386361007 M561.249414130591,292.06162386361007 L566.4378966282293,293.0579307409163 M566.4378966282293,293.0579307409163 L571.8248328546481,293.58325463862246 M579.2413415125989,258.23418788043205 L537.9615360044306,281.95640301043863 M537.9615360044306,281.95640301043863 L542.3750726737949,284.45488257622543 M638.4648021953353,277.12520653334894 L647.570397869632,282.2483679598364 M664.6791900461542,261.980858755907 L638.4648021953353,277.12520653334894 M647.570397869632,282.2483679598364 L710.5074205846561,245.85135114744847 M590.2273798292927,220.21580668397175 L664.6791900461542,261.980858755907 M710.5074205846561,245.85135114744847 L701.4028173399602,240.76520472074384 M600.9044611512272,214.09942815632846 L590.2273798292927,220.21580668397175 M701.4028173399602,240.76520472074384 L675.3551082049046,255.81326032256902 M675.3551082049046,255.81326032256902 L600.9044611512272,214.09942815632846 M443.28470250518865,349.0649957836206 L448.62259858718375,352.1232221351268 M426.2790309501883,334.93240485447956 L429.5429498878114,338.89449281006836 M429.5429498878114,338.89449281006836 L433.6393937831551,342.6017412553525 M433.6393937831551,342.6017412553525 L438.22552886437575,345.94622240823287 M438.22552886437575,345.94622240823287 L443.28470250518865,349.0649957836206 M448.62259858718375,352.1232221351268 L455.5217292003631,355.70885511785315 M455.5217292003631,355.70885511785315 L462.2862512810879,358.5439589849634 M462.2862512810879,358.5439589849634 L468.0568066523961,360.46282939883554 M468.0568066523961,360.46282939883554 L474.1478851457566,362.0175564444803 M423.3668443675064,320.9699934685584 L422.8012000451549,324.44372685706946 M422.8012000451549,324.44372685706946 L423.11898270535875,327.93147848926833 M423.11898270535875,327.93147848926833 L424.31509382715814,331.4860257254681 M424.31509382715814,331.4860257254681 L426.2790309501883,334.93240485447956 M474.1478851457566,362.0175564444803 L481.00620084631663,363.2140914021526 M481.00620084631663,363.2140914021526 L487.3733329750526,363.78729569575216 M487.3733329750526,363.78729569575216 L493.7006783369575,363.82051043081424 M493.7006783369575,363.82051043081424 L499.9582915183715,363.30309984708 M396.8719906575865,322.8010736629363 L423.3668443675064,320.9699934685584 M499.9582915183715,363.30309984708 L505.88879845979227,362.27885196349604 M505.88879845979227,362.27885196349604 L511.4923419570583,360.7700419616317 M511.4923419570583,360.7700419616317 L517.2884335769579,358.55996215490495 M517.2884335769579,358.55996215490495 L522.4923250341403,355.90745754299957 M397.4496192298373,314.5664330683062 L396.8719906575865,322.8010736629363 M522.4923250341403,355.90745754299957 L527.1175390365531,352.84607747927606 M527.1175390365531,352.84607747927606 L530.9042833150686,349.4306201976526 M530.9042833150686,349.4306201976526 L533.3076062084206,346.32284424504263 M533.3076062084206,346.32284424504263 L534.932755798324,343.0525891672896 M428.8856678614871,312.50987105486115 L397.4496192298373,314.5664330683062 M534.932755798324,343.0525891672896 L535.7592427051331,339.56294398526046 M535.7592427051331,339.56294398526046 L535.6860657755451,336.0397522610445 M535.6860657755451,336.0397522610445 L534.5571117719153,332.05606488725834 M534.5571117719153,332.05606488725834 L532.4571167568356,328.20009486592 M436.51325573178786,306.9646003062151 L432.39859138167924,309.6048681674436 M432.39859138167924,309.6048681674436 L428.8856678614871,312.50987105486115 M532.4571167568356,328.20009486592 L529.0904785044715,324.0233159762044 M529.0904785044715,324.0233159762044 L524.8442619390962,320.1174750330418 M524.8442619390962,320.1174750330418 L520.3033258574233,316.78137354152926 M520.3033258574233,316.78137354152926 L515.271809602428,313.684947711861 M458.6839662174729,299.7811362266131 L452.74014369263017,300.8031866859115 M452.74014369263017,300.8031866859115 L447.1214775256722,302.31060068527466 M447.1214775256722,302.31060068527466 L441.5387917627909,304.42687136588233 M441.5387917627909,304.42687136588233 L436.51325573178786,306.9646003062151 M515.271809602428,313.684947711861 L509.24561678440244,310.2584090556796 M484.1902922680651,300.90440380557544 L477.3370973339709,299.7790464430616 M477.3370973339709,299.7790464430616 L470.99133518723767,299.26148505241645 M470.99133518723767,299.26148505241645 L464.802839563929,299.26417648498824 M464.802839563929,299.26417648498824 L458.6839662174729,299.7811362266131 M509.24561678440244,310.2584090556796 L502.45326990645776,306.8343559616194 M502.45326990645776,306.8343559616194 L495.8032646370642,304.1507007880796 M495.8032646370642,304.1507007880796 L490.14470306226013,302.35053025510643 M490.14470306226013,302.35053025510643 L484.1902922680651,300.90440380557544 M412.0675540986852,418.4416703171487 L423.1826347317109,412.0137244242663 M355.15789807995253,385.55496901241804 L412.0675540986852,418.4416703171487 M423.1826347317109,412.0137244242663 L366.4448115748089,379.26764210497265 M343.3288177454487,370.13181836941055 L343.82712089314396,373.4785369573912 M343.82712089314396,373.4785369573912 L345.27570261126334,376.73212980771564 M345.27570261126334,376.73212980771564 L347.8270704119884,380.00554832011835 M347.8270704119884,380.00554832011835 L351.1618868691805,382.9229657642588 M351.1618868691805,382.9229657642588 L355.15789807995253,385.55496901241804 M366.4448115748089,379.26764210497265 L362.24706558858236,376.43412142908136 M362.24706558858236,376.43412142908136 L359.5934115794751,373.84004241050866 M359.5934115794751,373.84004241050866 L357.9947927742296,371.23228149613215 M357.9947927742296,371.23228149613215 L357.54512362341325,369.784555933824 M357.54512362341325,369.784555933824 L357.3944787838128,368.3165265182083 M354.97146488554137,353.80109872478175 L350.34498180058876,357.290066281569 M350.34498180058876,357.290066281569 L346.9836372658349,360.732433493511 M346.9836372658349,360.732433493511 L344.7993626572072,364.06417659676646 M344.7993626572072,364.06417659676646 L343.6813306298171,367.06722029426766 M343.6813306298171,367.06722029426766 L343.3288177454487,370.13181836941055 M357.3944787838128,368.3165265182083 L357.9462684025507,365.5577991646243 M357.9462684025507,365.5577991646243 L359.52942479446835,362.93138703797877 M359.52942479446835,362.93138703797877 L362.22530148185797,360.27784285148533 M362.22530148185797,360.27784285148533 L364.3778896348936,358.69595897590335 M364.3778896348936,358.69595897590335 L366.7587540369609,357.22437508820065 M357.7865608620637,352.05743438157293 L354.97146488554137,353.80109872478175 M366.7587540369609,357.22437508820065 L371.7392148175121,354.7770395971736 M371.7392148175121,354.7770395971736 L376.29588952322104,353.2250076254662 M376.29588952322104,353.2250076254662 L380.8344414287517,352.29482950938643 M380.8344414287517,352.29482950938643 L383.39596828053715,352.0286589327488 M383.39596828053715,352.0286589327488 L385.99397563347736,351.9423078701124 M387.01115067945517,343.7750124880746 L381.30188049997594,344.19090821934145 M381.30188049997594,344.19090821934145 L375.7710188858088,345.10944274731025 M375.7710188858088,345.10944274731025 L369.8023232068327,346.71068293705724 M369.8023232068327,346.71068293705724 L363.90361746755895,348.96228682247147 M363.90361746755895,348.96228682247147 L360.75905577619295,350.4527317813615 M360.75905577619295,350.4527317813615 L357.7865608620637,352.05743438157293 M385.99397563347736,351.9423078701124 L390.41471845731843,352.2085697419377 M390.41471845731843,352.2085697419377 L394.65824670669235,352.97272440354465 M394.65824670669235,352.97272440354465 L399.26386256777994,354.4050592649317 M399.26386256777994,354.4050592649317 L402.2670838210295,355.69885038833024 M402.2670838210295,355.69885038833024 L405.0369747320642,357.1585220956627 M415.57416860732246,350.70897382361386 L410.0752053121419,347.99965035866256 M410.0752053121419,347.99965035866256 L404.5575059245507,346.0117190071565 M404.5575059245507,346.0117190071565 L399.18552804558703,344.70906045312046 M399.18552804558703,344.70906045312046 L393.8147305032253,343.972478865414 M393.8147305032253,343.972478865414 L390.4218956565634,343.7760804252384 M390.4218956565634,343.7760804252384 L387.01115067945517,343.7750124880746 M405.0369747320642,357.1585220956627 L461.7173759073341,389.72875507036383 M472.5982362736128,383.43626075461106 L415.57416860732246,350.70897382361386 M461.7173759073341,389.72875507036383 L472.5982362736128,383.43626075461106 M299.1165797818244,386.9789690959254 L382.6862811257508,435.4331109705682 M310.21064602864885,380.62372026617913 L299.1165797818244,386.9789690959254 M382.6862811257508,435.4331109705682 L393.7806995483938,429.0171142101081 M393.7806995483938,429.0171142101081 L310.21064602864885,380.62372026617913 M269.5048808883127,448.5240090502752 L278.5171230111796,453.7899080932805 M306.19425780168666,427.41437831939413 L269.5048808883127,448.5240090502752 M278.5171230111796,453.7899080932805 L315.2067406502651,432.6585421781571 M276.63875092621095,410.21668445546203 L306.19425780168666,427.41437831939413 M315.2067406502651,432.6585421781571 L342.1270483382997,448.32287208771567 M234.00543742410667,434.6641047458874 L276.63875092621095,410.21668445546203 M342.1270483382997,448.32287208771567 L300.07466421361175,472.61700909671544 M225.03292070327427,429.41787987825825 L234.00543742410667,434.6641047458874 M300.07466421361175,472.61700909671544 L309.1816157028636,477.9414856564766 M278.7992912547073,398.6177516002696 L225.03292070327427,429.41787987825825 M309.1816157028636,477.9414856564766 L362.3681759946161,447.1832443920724 M362.3681759946161,447.1832443920724 L278.7992912547073,398.6177516002696 M213.55836962446756,475.1100629453382 L161.3150652030653,465.9187279525657 M233.57729088225082,463.5982543985506 L213.55836962446756,475.1100629453382 M161.3150652030653,465.9187279525657 L149.2105991910201,472.8527854700041 M199.8693270593989,443.8328739389998 L233.57729088225082,463.5982543985506 M149.2105991910201,472.8527854700041 L149.89599815351355,473.25700066770753 M211.14626582723608,437.37286637162737 L199.8693270593989,443.8328739389998 M149.89599815351355,473.25700066770753 L205.35516304385752,482.5627626840429 M294.71083073784,486.310063973968 L211.14626582723608,437.37286637162737 M205.35516304385752,482.5627626840429 L203.11695779817052,486.0332211458687 M203.11695779817052,486.0332211458687 L201.86712533274593,489.6599993146702 M201.86712533274593,489.6599993146702 L201.67098621018255,492.1210303482773 M201.67098621018255,492.1210303482773 L202.01351302474583,494.57392609552136 M266.51846299988017,502.61395059386354 L294.71083073784,486.310063973968 M202.01351302474583,494.57392609552136 L203.24737875243358,497.6199479315308 M203.24737875243358,497.6199479315308 L205.3806810104094,500.48861447618884 M205.3806810104094,500.48861447618884 L208.06397317469688,502.90982741807477 M208.06397317469688,502.90982741807477 L211.31092213727055,505.0877323769039 M237.86077676514674,511.6507126455639 L243.69034812424954,511.0463225268149 M243.69034812424954,511.0463225268149 L249.27090304630394,509.87257586197967 M249.27090304630394,509.87257586197967 L255.2521724660427,507.973550497601 M255.2521724660427,507.973550497601 L261.127039557245,505.4678280445551 M261.127039557245,505.4678280445551 L266.51846299988017,502.61395059386354 M211.31092213727055,505.0877323769039 L216.6796029252119,507.83457646968014 M216.6796029252119,507.83457646968014 L222.12950553328324,509.82192285560797 M222.12950553328324,509.82192285560797 L227.24057304050496,511.0169720317574 M227.24057304050496,511.0169720317574 L232.49415985972297,511.62625395895094 M232.49415985972297,511.62625395895094 L237.86077676514674,511.6507126455639 M109.93731539413892,540.8700172605741 L115.21636768453254,544.0111179534142 M115.21636768453254,544.0111179534142 L122.14362871216423,547.7429989915454 M122.14362871216423,547.7429989915454 L128.95795059912723,550.6943824102675 M128.95795059912723,550.6943824102675 L134.78602614049117,552.6940294036351 M134.78602614049117,552.6940294036351 L140.95144726353954,554.3184746752158 M140.95144726353954,554.3184746752158 L147.9100966635672,555.5733064479114 M147.9100966635672,555.5733064479114 L154.3911189912417,556.1768208933738 M154.3911189912417,556.1768208933738 L160.8412661095698,556.2134035079564 M160.8412661095698,556.2134035079564 L167.23743194841128,555.6703842448023 M167.23743194841128,555.6703842448023 L173.33024380225896,554.5946045008966 M173.33024380225896,554.5946045008966 L179.1032948660441,553.015180353709 M179.1032948660441,553.015180353709 L185.02031249360383,550.7372903294424 M185.02031249360383,550.7372903294424 L190.3582858281287,548.0085425325394 M190.3582858281287,548.0085425325394 L195.17349571512017,544.8299484617226 M195.17349571512017,544.8299484617226 L199.14612042801198,541.2837588455006 M199.14612042801198,541.2837588455006 L201.69876969909046,538.0570754816088 M201.69876969909046,538.0570754816088 L203.46390796816215,534.661732214418 M203.46390796816215,534.661732214418 L204.42255549990222,531.0386574097117 M204.42255549990222,531.0386574097117 L204.46563977877807,527.3807880723054 M204.46563977877807,527.3807880723054 L203.448321104067,523.2448927692496 M203.448321104067,523.2448927692496 L201.4373531982249,519.2416490982746 M201.4373531982249,519.2416490982746 L198.14652977329462,514.9054133398303 M198.14652977329462,514.9054133398303 L193.95052131735454,510.8505119411661 M193.95052131735454,510.8505119411661 L189.43524187520276,507.38714397492424 M189.43524187520276,507.38714397492424 L184.41216270121294,504.1726336008316 M184.41216270121294,504.1726336008316 L178.38672236814767,500.61546474745586 M178.38672236814767,500.61546474745586 L171.58066986141688,497.0609174051966 M171.58066986141688,497.0609174051966 L164.89495069587912,494.275020641813 M164.89495069587912,494.275020641813 L159.18985851212506,492.4062919118334 M159.18985851212506,492.4062919118334 L153.17154453525814,490.9050884271167 M153.17154453525814,490.9050884271167 L146.22677689546174,489.73687986169665 M146.22677689546174,489.73687986169665 L139.77867537767895,489.19961249243505 M139.77867537767895,489.19961249243505 L133.47338070030582,489.20240639771737 M133.47338070030582,489.20240639771737 L127.22177788096377,489.73904921517595 M127.22177788096377,489.73904921517595 L121.13156257753735,490.8000191750017 M121.13156257753735,490.8000191750017 L115.35640136664523,492.364821789024 M115.35640136664523,492.364821789024 L109.59737863652799,494.56168721800134 M109.59737863652799,494.56168721800134 L104.39175985452175,497.196128903164 M104.39175985452175,497.196128903164 L99.40630194826747,500.4429215529953 M99.40630194826747,500.4429215529953 L95.64100382148393,503.6900867916038 M95.64100382148393,503.6900867916038 L92.88220368168277,506.9885581324032 M92.88220368168277,506.9885581324032 L90.97229863243223,510.4799538299081 M90.97229863243223,510.4799538299081 L89.97473553662655,514.0458244270393 M89.97473553662655,514.0458244270393 L89.88919958166633,517.6521027136992 M89.88919958166633,517.6521027136992 L90.85388619113348,521.7322761594669 M90.85388619113348,521.7322761594669 L92.80830729308889,525.6865954717323 M92.80830729308889,525.6865954717323 L96.01794018766316,529.9513386529293 M96.01794018766316,529.9513386529293 L100.12026925902404,533.9468756358103 M100.12026925902404,533.9468756358103 L104.76238230293347,537.5350083110764 M104.76238230293347,537.5350083110764 L109.93731539413892,540.8700172605741 M818.9759858163932,272.03509562849024 L819.4299192020908,249.54365393208985 M165.76663770113458,653.1654063881476 L165.49350883742775,630.2538353942687 M177.80483908604305,653.1654063881476 L177.54542728045124,630.2538353942687 M819.248226306061,278.64789505997487 L819.7027579257697,256.14889353661493 M532.6185654086507,263.1309411271689 L537.5994666815363,260.6341274229815 M537.5994666815363,260.6341274229815 L542.8565107771265,258.69733281103584 M542.8565107771265,258.69733281103584 L548.0757295944895,257.3817684777653 M548.0757295944895,257.3817684777653 L553.478631345628,256.57128640213966 M553.478631345628,256.57128640213966 L557.1818821220784,256.3029532370563 M557.1818821220784,256.3029532370563 L560.9913259570765,256.24721583226096 M560.9913259570765,256.24721583226096 L561.0766514725713,244.99793415988984 M532.6185654086507,263.1309411271689 L532.688372675387,251.87771271754718 M560.9913259570765,256.24721583226096 L566.7411501947747,256.57444569297104 M566.7411501947747,256.57444569297104 L572.3479006743298,257.40387034481273 M572.3479006743298,257.40387034481273 L578.4173013058498,258.9167012443439 M578.4173013058498,258.9167012443439 L584.4299299195259,261.10166528147465 M584.4299299195259,261.10166528147465 L587.6650333031666,262.58246782252513 M587.6650333031666,262.58246782252513 L590.8453227724044,264.26032342978397 M590.8453227724044,264.26032342978397 L590.9471084083273,253.00644799128207 M521.570425478111,283.0776471392787 L520.7151429102898,279.65524429275143 M520.7151429102898,279.65524429275143 L520.8114901954177,276.3497252922201 M520.8114901954177,276.3497252922201 L521.796469576554,273.29031183918414 M521.796469576554,273.29031183918414 L523.9102769474366,270.02185353867753 M523.9102769474366,270.02185353867753 L527.147272645575,266.8436722921671 M527.147272645575,266.8436722921671 L529.6761067848854,264.962023873113 M529.6761067848854,264.962023873113 L532.6185654086507,263.1309411271689 M521.570425478111,283.0776471392787 L521.6342940020359,271.81301168236627 M590.8453227724044,264.26032342978397 L592.7929912333691,265.3576800840594 M592.7929912333691,265.3576800840594 L592.8958575257232,254.10317609793657 M532.9746054641657,282.2678925424437 L521.570425478111,283.0776471392787 M532.9746054641657,282.2678925424437 L533.0447417648352,271.00371931767444 M592.7929912333691,265.3576800840594 L597.8383207068446,268.5536643346047 M597.8383207068446,268.5536643346047 L601.9106978678601,271.90860550693037 M601.9106978678601,271.90860550693037 L604.0870951797615,274.2365764493389 M604.0870951797615,274.2365764493389 L605.8293997078256,276.6356122303031 M605.8293997078256,276.6356122303031 L605.9395483600797,265.37465606342624 M533.6199122441722,274.9859657878828 L532.729668303195,278.1491639182207 M532.729668303195,278.1491639182207 L532.6634629616665,280.1856235343757 M532.6634629616665,280.1856235343757 L532.9746054641657,282.2678925424437 M533.6199122441722,274.9859657878828 L533.6903524177899,263.72595252638484 M605.8293997078256,276.6356122303031 L607.5217018095063,280.08682956491265 M607.5217018095063,280.08682956491265 L608.255604769998,283.50885671983485 M608.255604769998,283.50885671983485 L608.1741982244798,286.07270696298474 M608.1741982244798,286.07270696298474 L607.5456617904433,288.61986875242064 M607.5456617904433,288.61986875242064 L607.6568865129218,277.3520715544703 M540.6798223644103,268.3282005300535 L537.4443437140171,270.4746715451661 M537.4443437140171,270.4746715451661 L535.0908622278694,272.6938946767094 M535.0908622278694,272.6938946767094 L533.6199122441722,274.9859657878828 M540.6798223644103,268.3282005300535 L540.7540937852725,257.0719957399667 M607.5456617904433,288.61986875242064 L605.9606114579024,291.8009937763134 M605.9606114579024,291.8009937763134 L603.5616993550639,294.71256742571086 M603.5616993550639,294.71256742571086 L601.1252573623356,296.7961518946177 M601.1252573623356,296.7961518946177 L598.1931626233079,298.7152553966294 M598.1931626233079,298.7152553966294 L598.2993462077338,287.441707587788 M559.1019015556096,264.1635083114903 L554.2982120123713,264.2851838105393 M554.2982120123713,264.2851838105393 L549.8086744399086,264.9205756296074 M549.8086744399086,264.9205756296074 L545.3450674939679,266.1721083296876 M545.3450674939679,266.1721083296876 L542.9537013489066,267.1534706859291 M542.9537013489066,267.1534706859291 L540.6798223644103,268.3282005300535 M559.1019015556096,264.1635083114903 L559.1862570481055,252.90968833339738 M598.1931626233079,298.7152553966294 L593.3495076661216,301.1496102193391 M593.3495076661216,301.1496102193391 L588.2888222400518,302.9822339393516 M588.2888222400518,302.9822339393516 L583.3930690865589,304.14509817819635 M583.3930690865589,304.14509817819635 L578.4001938808476,304.78093456902724 M578.4001938808476,304.78093456902724 L575.1033871793263,304.924071815479 M575.1033871793263,304.924071815479 L571.7331716083497,304.8602973764056 M571.7331716083497,304.8602973764056 L571.8248328546481,293.58325463862246 M579.1459299236265,269.4910582146 L574.3324951039806,267.2524363101642 M574.3324951039806,267.2524363101642 L569.3581209922795,265.6179098803948 M569.3581209922795,265.6179098803948 L564.6061353166313,264.64227713871674 M564.6061353166313,264.64227713871674 L561.876084937013,264.32128594594815 M561.876084937013,264.32128594594815 L559.1019015556096,264.1635083114903 M579.1459299236265,269.4910582146 L579.2413415125989,258.23418788043205 M571.7331716083497,304.8602973764056 L565.8214448062067,304.2551428036713 M565.8214448062067,304.2551428036713 L559.8867911051825,303.0190686317708 M559.8867911051825,303.0190686317708 L553.6356354227873,301.04405811236165 M553.6356354227873,301.04405811236165 L547.9764289595573,298.66720166179863 M547.9764289595573,298.66720166179863 L542.2997062522534,295.7267291993248 M542.2997062522534,295.7267291993248 L542.3750726737949,284.45488257622543 M537.8886172932255,293.22682584079683 L579.1459299236265,269.4910582146 M537.8886172932255,293.22682584079683 L537.9615360044306,281.95640301043863 M542.2997062522534,295.7267291993248 L537.8886172932255,293.22682584079683 M647.4371518874902,293.518957205697 L638.3366329418373,288.392874300881 M638.3366329418373,288.392874300881 L638.4648021953353,277.12520653334894 M647.4371518874902,293.518957205697 L647.570397869632,282.2483679598364 M638.3366329418373,288.392874300881 L664.536815357091,273.23987366138533 M664.536815357091,273.23987366138533 L664.6791900461542,261.980858755907 M710.3401435167609,257.1011226830472 L647.4371518874902,293.518957205697 M710.3401435167609,257.1011226830472 L710.5074205846561,245.85135114744847 M664.536815357091,273.23987366138533 L590.1263206056205,231.45082856499383 M590.1263206056205,231.45082856499383 L590.2273798292927,220.21580668397175 M701.2406153664963,252.0120556180026 L710.3401435167609,257.1011226830472 M701.2406153664963,252.0120556180026 L701.4028173399602,240.76520472074384 M590.1263206056205,231.45082856499383 L600.7976272414314,225.33092028397243 M600.7976272414314,225.33092028397243 L600.9044611512272,214.09942815632846 M675.2069607409426,267.0687441149405 L701.2406153664963,252.0120556180026 M675.2069607409426,267.0687441149405 L675.3551082049046,255.81326032256902 M600.7976272414314,225.33092028397243 L675.2069607409426,267.0687441149405 M448.5986820335133,363.4333704368731 L443.26375048865367,360.3734238880571 M443.26375048865367,360.3734238880571 L443.28470250518865,349.0649957836206 M448.5986820335133,363.4333704368731 L448.62259858718375,352.1232221351268 M443.26375048865367,360.3734238880571 L436.906464461513,356.36424500045956 M436.906464461513,356.36424500045956 L431.73858522587625,352.3121591645555 M431.73858522587625,352.3121591645555 L428.67765197082,349.2842243002337 M428.67765197082,349.2842243002337 L426.2675165567571,346.2328703245193 M426.2675165567571,346.2328703245193 L426.2790309501883,334.93240485447956 M474.1097855507413,373.33326311224545 L466.776353718556,371.400547707585 M466.776353718556,371.400547707585 L459.6073598094307,368.8243187456443 M459.6073598094307,368.8243187456443 L454.05083432550305,366.32979153064144 M454.05083432550305,366.32979153064144 L448.5986820335133,363.4333704368731 M474.1097855507413,373.33326311224545 L474.1478851457566,362.0175564444803 M426.2675165567571,346.2328703245193 L424.12762764210345,342.3847715555051 M424.12762764210345,342.3847715555051 L422.9882566320636,338.59902109029485 M422.9882566320636,338.59902109029485 L422.8068632627932,335.40804721439184 M422.8068632627932,335.40804721439184 L423.3569548137063,332.2625707027879 M423.3569548137063,332.2625707027879 L423.3668443675064,320.9699934685584 M499.90586743175686,374.6195279107655 L493.85320070171906,375.12922110808836 M493.85320070171906,375.12922110808836 L487.7097833058029,375.1214206873345 M487.7097833058029,375.1214206873345 L480.96173556263705,374.5301334491375 M480.96173556263705,374.5301334491375 L474.1097855507413,373.33326311224545 M499.90586743175686,374.6195279107655 L499.9582915183715,363.30309984708 M423.3569548137063,332.2625707027879 L396.87673999758954,334.0946866050288 M396.87673999758954,334.0946866050288 L396.8719906575865,322.8010736629363 M522.4274463726056,367.21973299092576 L517.157571828345,369.9043521983187 M517.157571828345,369.9043521983187 L511.56236868144987,372.0434555123 M511.56236868144987,372.0434555123 L505.88345260478525,373.58359647553027 M505.88345260478525,373.58359647553027 L499.90586743175686,374.6195279107655 M522.4274463726056,367.21973299092576 L522.4923250341403,355.90745754299957 M396.87673999758954,334.0946866050288 L397.4540457686054,325.8553853896958 M397.4540457686054,325.8553853896958 L397.4496192298373,314.5664330683062 M534.8610712450452,354.35763241424803 L533.1410089969429,357.78005052558535 M533.1410089969429,357.78005052558535 L530.5714665916003,361.02045489635333 M530.5714665916003,361.02045489635333 L526.9665771308519,364.2204184371203 M526.9665771308519,364.2204184371203 L522.4274463726056,367.21973299092576 M534.8610712450452,354.35763241424803 L534.932755798324,343.0525891672896 M397.4540457686054,325.8553853896958 L428.872740074759,323.7976582494039 M428.872740074759,323.7976582494039 L428.8856678614871,312.50987105486115 M532.3869061363278,339.49675950065455 L534.4827396181818,343.3477893096053 M534.4827396181818,343.3477893096053 L535.5830715745333,347.13868007087603 M535.5830715745333,347.13868007087603 L535.6963278052895,350.77687448377196 M535.6963278052895,350.77687448377196 L534.8610712450452,354.35763241424803 M532.3869061363278,339.49675950065455 L532.4571167568356,328.20009486592 M428.872740074759,323.7976582494039 L432.31474713672867,320.9410947286155 M432.31474713672867,320.9410947286155 L436.49612675938243,318.24924356835936 M436.49612675938243,318.24924356835936 L436.51325573178786,306.9646003062151 M515.2111876151844,324.97340069232325 L521.3199403367146,328.8099115502212 M521.3199403367146,328.8099115502212 L526.3799937331207,332.7682830440361 M526.3799937331207,332.7682830440361 L529.7338544926938,336.09170487611715 M529.7338544926938,336.09170487611715 L532.3869061363278,339.49675950065455 M515.2111876151844,324.97340069232325 L515.271809602428,313.684947711861 M436.49612675938243,318.24924356835936 L441.6712379667176,315.64303658411666 M441.6712379667176,315.64303658411666 L447.1850306041041,313.5649079272494 M447.1850306041041,313.5649079272494 L452.7649008457037,312.0732203575009 M452.7649008457037,312.0732203575009 L458.65462614191773,311.0617017625619 M458.65462614191773,311.0617017625619 L458.6839662174729,299.7811362266131 M509.1883412362983,321.54492017330006 L515.2111876151844,324.97340069232325 M509.1883412362983,321.54492017330006 L509.24561678440244,310.2584090556796 M458.65462614191773,311.0617017625619 L464.744835648493,310.545517051616 M464.744835648493,310.545517051616 L470.9226644833499,310.54043859268415 M470.9226644833499,310.54043859268415 L477.48568048343753,311.08280237697494 M477.48568048343753,311.08280237697494 L484.1468850366302,312.1856073423248 M484.1468850366302,312.1856073423248 L484.1902922680651,300.90440380557544 M484.1468850366302,312.1856073423248 L491.45434098662975,314.02566115700336 M491.45434098662975,314.02566115700336 L498.57071813219943,316.4945007022031 M498.57071813219943,316.4945007022031 L503.93588351837707,318.8317125819644 M503.93588351837707,318.8317125819644 L509.1883412362983,321.54492017330006 M423.1727587115354,423.3573535754488 L412.0638720446654,429.7888695635801 M412.0638720446654,429.7888695635801 L412.0675540986852,418.4416703171487 M423.1727587115354,423.3573535754488 L423.1826347317109,412.0137244242663 M412.0638720446654,429.7888695635801 L355.1858707636079,396.8838552563272 M355.1858707636079,396.8838552563272 L355.15789807995253,385.55496901241804 M366.46649509555556,390.5930137531472 L423.1727587115354,423.3573535754488 M366.46649509555556,390.5930137531472 L366.4448115748089,379.26764210497265 M355.1858707636079,396.8838552563272 L350.80782925134855,393.95714968501005 M350.80782925134855,393.95714968501005 L347.4384761818527,390.8818642662629 M347.4384761818527,390.8818642662629 L345.18567678935426,387.8478756117267 M345.18567678935426,387.8478756117267 L343.8364185321912,384.71430730865484 M343.8364185321912,384.71430730865484 L343.3633151949771,381.45207540407273 M343.3633151949771,381.45207540407273 L343.3288177454487,370.13181836941055 M357.42116254970796,379.63576618833014 L357.87031584685406,382.16359085460806 M357.87031584685406,382.16359085460806 L359.216818262471,384.6418157755163 M359.216818262471,384.6418157755163 L361.8324937345005,387.3938561666195 M361.8324937345005,387.3938561666195 L363.9435527113836,389.0048431189485 M363.9435527113836,389.0048431189485 L366.46649509555556,390.5930137531472 M357.42116254970796,379.63576618833014 L357.3944787838128,368.3165265182083 M343.3633151949771,381.45207540407273 L343.7765332559742,378.1447467429972 M343.7765332559742,378.1447467429972 L345.08643493804686,374.8983513401843 M345.08643493804686,374.8983513401843 L347.6083072584983,371.3445461790547 M347.6083072584983,371.3445461790547 L350.84828048792315,368.1975016374133 M350.84828048792315,368.1975016374133 L354.99945350981454,365.1121903666988 M354.99945350981454,365.1121903666988 L354.97146488554137,353.80109872478175 M366.78021642807573,368.53739041710617 L362.65689870059776,371.2678353416296 M362.65689870059776,371.2678353416296 L359.72210149436376,374.0437718445839 M359.72210149436376,374.0437718445839 L358.09816154606074,376.5801382451882 M358.09816154606074,376.5801382451882 L357.5902298268929,378.10145428996566 M357.5902298268929,378.10145428996566 L357.42116254970796,379.63576618833014 M366.78021642807573,368.53739041710617 L366.7587540369609,357.22437508820065 M354.99945350981454,365.1121903666988 L357.8129845809295,363.36754568967336 M357.8129845809295,363.36754568967336 L357.7865608620637,352.05743438157293 M386.0047670576929,363.2523544393489 L381.6451371037746,363.5025505535048 M381.6451371037746,363.5025505535048 L377.3587171504245,364.2676960598392 M377.3587171504245,364.2676960598392 L372.5730298524913,365.763641556711 M372.5730298524913,365.763641556711 L369.6589433493089,367.02284896433895 M369.6589433493089,367.02284896433895 L366.78021642807573,368.53739041710617 M386.0047670576929,363.2523544393489 L385.99397563347736,351.9423078701124 M357.8129845809295,363.36754568967336 L363.5685567971449,360.4300961520625 M363.5685567971449,360.4300961520625 L369.47547358150604,358.1313236393728 M369.47547358150604,358.1313236393728 L375.09421753716936,356.5684644779221 M375.09421753716936,356.5684644779221 L380.710009893963,355.57185164481024 M380.710009893963,355.57185164481024 L383.8465045083459,355.24731785647424 M383.8465045083459,355.24731785647424 L387.0213701590007,355.0804626533556 M387.0213701590007,355.0804626533556 L387.01115067945517,343.7750124880746 M405.03721302345315,368.4715004310339 L400.4157650390984,366.1771886070622 M400.4157650390984,366.1771886070622 L395.6757027539273,364.542957857381 M395.6757027539273,364.542957857381 L391.2715454031612,363.6307930234956 M391.2715454031612,363.6307930234956 L388.65509666393046,363.3491590535156 M388.65509666393046,363.3491590535156 L386.0047670576929,363.2523544393489 M405.03721302345315,368.4715004310339 L405.0369747320642,357.1585220956627 M387.0213701590007,355.0804626533556 L392.59822250056294,355.1840188951177 M392.59822250056294,355.1840188951177 L398.01088740485335,355.8066385365692 M398.01088740485335,355.8066385365692 L403.7736444430969,357.090568627448 M403.7736444430969,357.090568627448 L409.43285570132485,359.0406849909651 M409.43285570132485,359.0406849909651 L412.5327465023506,360.42613495665057 M412.5327465023506,360.42613495665057 L415.5685679525023,362.01832676346305 M415.5685679525023,362.01832676346305 L415.57416860732246,350.70897382361386 M461.68608663048997,401.0599720560557 L405.03721302345315,368.4715004310339 M461.68608663048997,401.0599720560557 L461.7173759073341,389.72875507036383 M415.5685679525023,362.01832676346305 L472.56091765483086,394.7639631310694 M472.56091765483086,394.7639631310694 L472.5982362736128,383.43626075461106 M472.56091765483086,394.7639631310694 L461.68608663048997,401.0599720560557 M382.6990096611605,446.7897255064196 L299.1757207999061,398.30865074993676 M299.1757207999061,398.30865074993676 L299.1165797818244,386.9789690959254 M382.6990096611605,446.7897255064196 L382.6862811257508,435.4331109705682 M299.1757207999061,398.30865074993676 L310.2635845497198,391.9498503239789 M310.2635845497198,391.9498503239789 L310.21064602864885,380.62372026617913 M393.78722499869724,440.3701772328838 L382.6990096611605,446.7897255064196 M393.78722499869724,440.3701772328838 L393.7806995483938,429.0171142101081 M310.2635845497198,391.9498503239789 L393.78722499869724,440.3701772328838 M278.5881833371398,465.15665895111925 L269.5809466680134,459.887855940591 M269.5809466680134,459.887855940591 L269.5048808883127,448.5240090502752 M278.5881833371398,465.15665895111925 L278.5171230111796,453.7899080932805 M269.5809466680134,459.887855940591 L306.2496825469683,438.76655345930897 M306.2496825469683,438.76655345930897 L306.19425780168666,427.41437831939413 M315.2571595382918,444.0136214315822 L278.5881833371398,465.15665895111925 M315.2571595382918,444.0136214315822 L315.2067406502651,432.6585421781571 M306.2496825469683,438.76655345930897 L276.71055557684446,421.5593147171896 M276.71055557684446,421.5593147171896 L276.63875092621095,410.21668445546203 M342.1624839258747,459.68660799748693 L315.2571595382918,444.0136214315822 M342.1624839258747,459.68660799748693 L342.1270483382997,448.32287208771567 M276.71055557684446,421.5593147171896 L234.10123385885615,446.02029384360185 M234.10123385885615,446.02029384360185 L234.00543742410667,434.6641047458874 M300.13376621078334,483.99411762929714 L342.1624839258747,459.68660799748693 M300.13376621078334,483.99411762929714 L300.07466421361175,472.61700909671544 M234.10123385885615,446.02029384360185 L225.13367834966098,440.77116487303135 M225.13367834966098,440.77116487303135 L225.03292070327427,429.41787987825825 M309.23563873078785,489.3215163914406 L300.13376621078334,483.99411762929714 M309.23563873078785,489.3215163914406 L309.1816157028636,477.9414856564766 M225.13367834966098,440.77116487303135 L278.8698113114633,409.9539260543651 M278.8698113114633,409.9539260543651 L278.7992912547073,398.6177516002696 M362.39228493373247,458.54635141030354 L309.23563873078785,489.3215163914406 M362.39228493373247,458.54635141030354 L362.3681759946161,447.1832443920724 M278.8698113114633,409.9539260543651 L362.39228493373247,458.54635141030354 M161.45189163964892,477.29215589478605 L213.66601459021098,486.48854011317724 M213.66601459021098,486.48854011317724 L213.55836962446756,475.1100629453382 M161.45189163964892,477.29215589478605 L161.3150652030653,465.9187279525657 M213.66601459021098,486.48854011317724 L233.6735986111506,474.9704061342613 M233.6735986111506,474.9704061342613 L233.57729088225082,463.5982543985506 M149.35430636975317,484.2300234681108 L161.45189163964892,477.29215589478605 M149.35430636975317,484.2300234681108 L149.2105991910201,472.8527854700041 M233.6735986111506,474.9704061342613 L199.98429866661786,455.1941312666975 M199.98429866661786,455.1941312666975 L199.8693270593989,443.8328739389998 M150.03932661546605,484.6344606074429 L149.35430636975317,484.2300234681108 M150.03932661546605,484.6344606074429 L149.89599815351355,473.25700066770753 M199.98429866661786,455.1941312666975 L211.25486261125704,448.73055375266455 M211.25486261125704,448.73055375266455 L211.14626582723608,437.37286637162737 M205.46749092920044,493.94532717111116 L150.03932661546605,484.6344606074429 M205.46749092920044,493.94532717111116 L205.35516304385752,482.5627626840429 M211.25486261125704,448.73055375266455 L294.7730236454608,497.69468131253683 M294.7730236454608,497.69468131253683 L294.71083073784,486.310063973968 M202.1278503545916,505.9630651176725 L201.78799720538527,502.7725296217201 M201.78799720538527,502.7725296217201 L202.3588973335292,499.55220621145537 M202.3588973335292,499.55220621145537 L203.5771875225844,496.7597317636474 M203.5771875225844,496.7597317636474 L205.46749092920044,493.94532717111116 M202.1278503545916,505.9630651176725 L202.01351302474583,494.57392609552136 M294.7730236454608,497.69468131253683 L266.59661073703364,514.0074816446511 M266.59661073703364,514.0074816446511 L266.51846299988017,502.61395059386354 M211.42014615250665,516.4826133573879 L207.60992948267034,513.8548684837854 M207.60992948267034,513.8548684837854 L204.75361655433127,511.03221169403906 M204.75361655433127,511.03221169403906 L203.11815051192596,508.56343379203685 M203.11815051192596,508.56343379203685 L202.1278503545916,505.9630651176725 M211.42014615250665,516.4826133573879 L211.31092213727055,505.0877323769039 M266.59661073703364,514.0074816446511 L260.20319065720327,517.3368979161733 M260.20319065720327,517.3368979161733 L253.82537079398668,519.9127625154388 M253.82537079398668,519.9127625154388 L248.06358393320144,521.5944646950577 M248.06358393320144,521.5944646950577 L243.00317707875078,522.5621277480427 M243.00317707875078,522.5621277480427 L237.95512511037663,523.0491717616596 M237.95512511037663,523.0491717616596 L237.86077676514674,511.6507126455639 M237.95512511037663,523.0491717616596 L232.78554903090682,523.0358430725212 M232.78554903090682,523.0358430725212 L227.74528628205707,522.4837121682253 M227.74528628205707,522.4837121682253 L222.33033986938418,521.2481328891861 M222.33033986938418,521.2481328891861 L216.95421995065115,519.3041168596756 M216.95421995065115,519.3041168596756 L214.16332596948425,517.9904118436432 M214.16332596948425,517.9904118436432 L211.42014615250665,516.4826133573879 M115.38026856614192,555.4271509723803 L110.10414650908984,552.2843494746546 M110.10414650908984,552.2843494746546 L109.93731539413892,540.8700172605741 M115.38026856614192,555.4271509723803 L115.21636768453254,544.0111179534142 M141.10096501217936,565.7400812042122 L133.6464432279712,563.7107951748328 M133.6464432279712,563.7107951748328 L126.39107287362003,561.0152872969713 M126.39107287362003,561.0152872969713 L120.82333800923175,558.4268132902016 M120.82333800923175,558.4268132902016 L115.38026856614192,555.4271509723803 M141.10096501217936,565.7400812042122 L140.95144726353954,554.3184746752158 M167.3721091158212,567.0927209303111 L161.23613894225363,567.6255035764771 M161.23613894225363,567.6255035764771 L155.01607991140392,567.6219657597417 M155.01607991140392,567.6219657597417 L148.1077320045593,567.0026309276484 M148.1077320045593,567.0026309276484 L141.10096501217936,565.7400812042122 M167.3721091158212,567.0927209303111 L167.23743194841128,555.6703842448023 M190.4798020172864,559.4267384653756 L185.03211929505107,562.2073590359184 M185.03211929505107,562.2073590359184 L179.26526142537205,564.424980039975 M179.26526142537205,564.424980039975 L173.46339994139262,566.0159210181782 M173.46339994139262,566.0159210181782 L167.3721091158212,567.0927209303111 M190.4798020172864,559.4267384653756 L190.3582858281287,548.0085425325394 M203.57787320980316,546.0726996631415 L201.71114596151256,549.6259571258995 M201.71114596151256,549.6259571258995 L198.98490551005284,552.990275701042 M198.98490551005284,552.990275701042 L195.2050054041712,556.3126513665459 M195.2050054041712,556.3126513665459 L190.4798020172864,559.4267384653756 M203.57787320980316,546.0726996631415 L203.46390796816215,534.661732214418 M201.5522896579343,530.6442409071765 L203.55937673877398,534.6422719776979 M203.55937673877398,534.6422719776979 L204.5541702484704,538.5779201678915 M204.5541702484704,538.5779201678915 L204.54830333082703,542.3550979209342 M204.54830333082703,542.3550979209342 L203.57787320980316,546.0726996631415 M201.5522896579343,530.6442409071765 L201.4373531982249,519.2416490982746 M184.5365077768265,515.5670152948488 L190.63259061667821,519.5497612338368 M190.63259061667821,519.5497612338368 L195.6561950810699,523.6590680574636 M195.6561950810699,523.6590680574636 L198.96261472629166,527.109256709578 M198.96261472629166,527.109256709578 L201.5522896579343,530.6442409071765 M184.5365077768265,515.5670152948488 L184.41216270121294,504.1726336008316 M178.51441261470015,512.007904745536 L184.5365077768265,515.5670152948488 M178.51441261470015,512.007904745536 L178.38672236814767,500.61546474745586 M153.31327960014244,502.29222091856946 L160.69702178540274,504.2023065080591 M160.69702178540274,504.2023065080591 L167.86510937090776,506.7651445499692 M167.86510937090776,506.7651445499692 L173.25343349332422,509.19135238736357 M173.25343349332422,509.19135238736357 L178.51441261470015,512.007904745536 M153.31327960014244,502.29222091856946 L153.17154453525814,490.9050884271167 M127.37807332507953,501.12554367723493 L133.60035202109395,500.5897165409885 M133.60035202109395,500.5897165409885 L139.8948006781477,500.5844404338622 M139.8948006781477,500.5844404338622 L146.56337615216358,501.1474472573102 M146.56337615216358,501.1474472573102 L153.31327960014244,502.29222091856946 M127.37807332507953,501.12554367723493 L127.22177788096377,489.73904921517595 M104.56100217563693,508.5867011355617 L109.92106424326977,505.88125337425765 M109.92106424326977,505.88125337425765 L115.60844482495696,503.7240148430535 M115.60844482495696,503.7240148430535 L121.3434522888258,502.1755610865888 M121.3434522888258,502.1755610865888 L127.37807332507953,501.12554367723493 M104.56100217563693,508.5867011355617 L104.39175985452175,497.196128903164 M91.14931294192519,521.8777749942653 L93.04019458130949,518.4105062634721 M93.04019458130949,518.4105062634721 L95.79541030217933,515.1042920570928 M95.79541030217933,515.1042920570928 L99.6870883060244,511.7541815784451 M99.6870883060244,511.7541815784451 L104.56100217563693,508.5867011355617 M91.14931294192519,521.8777749942653 L90.97229863243223,510.4799538299081 M92.98454830241974,537.0926911139 L91.02696475452427,533.1248480263441 M91.02696475452427,533.1248480263441 L90.08548367064873,529.2280273029833 M90.08548367064873,529.2280273029833 L90.1414519037956,525.5196993313791 M90.1414519037956,525.5196993313791 L91.14931294192519,521.8777749942653 M92.98454830241974,537.0926911139 L92.80830729308889,525.6865954717323 M110.10414650908984,552.2843494746546 L103.87425655581353,548.1894550501672 M103.87425655581353,548.1894550501672 L98.78407255885651,544.0061688747699 M98.78407255885651,544.0061688747699 L95.51648816935585,540.5778877706962 M95.51648816935585,540.5778877706962 L92.98454830241974,537.0926911139 M589.4576830049455,293.7786457620487 L592.2844018824544,291.7847917380407 M592.2844018824544,291.7847917380407 L594.2001870815061,289.59146960177156 M594.2001870815061,289.59146960177156 L595.1583300277771,287.3987432609163 M595.1583300277771,287.3987432609163 L595.3470469757096,285.0377941187699 M595.3470469757096,285.0377941187699 L594.5681721236788,282.16164156921667 M594.5681721236788,282.16164156921667 L592.6899180807693,279.24908608322346 M592.6899180807693,279.24908608322346 L590.4430672026431,276.9346980156093 M590.4430672026431,276.9346980156093 L587.518356941898,274.59789367862663 M587.518356941898,274.59789367862663 L557.0294633184674,292.1558186878197 M557.0294633184674,292.1558186878197 L557.8320953058469,292.6101575216198 M557.8320953058469,292.6101575216198 L562.8477065884047,294.80909029757214 M562.8477065884047,294.80909029757214 L567.8195650649241,296.3103872992881 M567.8195650649241,296.3103872992881 L571.245682355328,296.94210660444537 M571.245682355328,296.94210660444537 L574.6498438585741,297.2370125055739 M574.6498438585741,297.2370125055739 L578.7090823884187,297.1339081175408 M578.7090823884187,297.1339081175408 L582.5463849051439,296.51377471098095 M582.5463849051439,296.51377471098095 L586.1103046967237,295.39701470569884 M586.1103046967237,295.39701470569884 L589.4576830049455,293.7786457620487 M453.41770595713893,353.6020521975219 L459.61282898943415,357.150962708471 M459.61282898943415,357.150962708471 L466.41738827699305,360.6864458585682 M466.41738827699305,360.6864458585682 L473.1288370640466,363.44309449798953 M473.1288370640466,363.44309449798953 L479.08494372886145,365.2562981149239 M479.08494372886145,365.2562981149239 L483.6854607487583,366.2334632584434 M483.6854607487583,366.2334632584434 L488.2379096005045,366.8245032836604 M488.2379096005045,366.8245032836604 L493.3988682707104,367.01766225914884 M493.3988682707104,367.01766225914884 L498.33999984060836,366.670819322421 M498.33999984060836,366.670819322421 L503.3892131927823,365.70010281163803 M503.3892131927823,365.70010281163803 L508.2884748245541,364.0674263108293 M508.2884748245541,364.0674263108293 L512.9213754606558,361.7880103532961 M512.9213754606558,361.7880103532961 L516.5428843890468,359.32730470628735 M516.5428843890468,359.32730470628735 L519.1787305633375,356.7050654642641 M519.1787305633375,356.7050654642641 L520.7595390420668,354.0901130563163 M520.7595390420668,354.0901130563163 L521.490976434995,351.05901147792986 M521.490976434995,351.05901147792986 L521.1753176143018,347.8567812980272 M521.1753176143018,347.8567812980272 L519.7357885383224,344.3978599599035 M519.7357885383224,344.3978599599035 L517.178976507653,340.9228934262828 M517.178976507653,340.9228934262828 L513.2532245411094,337.2243814233866 M513.2532245411094,337.2243814233866 L509.5584654774998,334.4866703730994 M509.5584654774998,334.4866703730994 L505.1845510175251,331.7392314747071 M505.1845510175251,331.7392314747071 L499.04638397115644,328.2407862710977 M499.04638397115644,328.2407862710977 L492.4607642866574,324.84674698648575 M492.4607642866574,324.84674698648575 L485.89441102874093,322.1821802925028 M485.89441102874093,322.1821802925028 L479.9364084786762,320.39085744263883 M479.9364084786762,320.39085744263883 L475.2388473824637,319.40136680161623 M475.2388473824637,319.40136680161623 L470.5492941630957,318.7874989274251 M470.5492941630957,318.7874989274251 L465.25032354208173,318.563781694161 M465.25032354208173,318.563781694161 L460.21616508898074,318.8805016110695 M460.21616508898074,318.8805016110695 L455.6558951498675,319.68736355375574 M455.6558951498675,319.68736355375574 L450.85798417573596,321.16695305390397 M450.85798417573596,321.16695305390397 L448.2849646903087,322.2706749334189 M448.2849646903087,322.2706749334189 L445.80625408998117,323.56907366617054 M445.80625408998117,323.56907366617054 L442.04139177188,326.0922432688846 M442.04139177188,326.0922432688846 L439.2970720636973,328.754073856911 M439.2970720636973,328.754073856911 L437.6586034746991,331.3603557339472 M437.6586034746991,331.3603557339472 L436.8858985960016,334.31779558354276 M436.8858985960016,334.31779558354276 L437.15456966091784,337.4170966405667 M437.15456966091784,337.4170966405667 L438.5457235727652,340.7665091303607 M438.5457235727652,340.7665091303607 L441.0656760729213,344.1734385296038 M441.0656760729213,344.1734385296038 L445.02370267983406,347.89103803426036 M445.02370267983406,347.89103803426036 L448.8531960323305,350.72776905842255 M448.8531960323305,350.72776905842255 L453.41770595713893,353.6020521975219 M274.399800660142,498.877479518358 L242.67560230240835,480.25475753515843 M242.67560230240835,480.25475753515843 L225.42008811463467,490.19870856991713 M225.42008811463467,490.19870856991713 L221.41474615456875,492.8763659524363 M221.41474615456875,492.8763659524363 L218.5541682994983,495.63366410415426 M218.5541682994983,495.63366410415426 L217.05109017645063,497.9802355321486 M217.05109017645063,497.9802355321486 L216.33604783304563,500.38171501987034 M216.33604783304563,500.38171501987034 L216.45523254203755,502.9224703390109 M216.45523254203755,502.9224703390109 L217.5025273470179,505.32607908311985 M217.5025273470179,505.32607908311985 L219.47855616256743,507.59233874177824 M219.47855616256743,507.59233874177824 L220.97227504536752,508.78794409436995 M220.97227504536752,508.78794409436995 L222.75093619760133,509.94136166016233 M222.75093619760133,509.94136166016233 L226.8941537311868,512.0047484743394 M226.8941537311868,512.0047484743394 L231.19001601376786,513.400733508612 M231.19001601376786,513.400733508612 L235.2048966166755,514.0879496876737 M235.2048966166755,514.0879496876737 L237.2751644006766,514.2272633223718 M237.2751644006766,514.2272633223718 L239.37671735757544,514.2278227914667 M239.37671735757544,514.2278227914667 L244.00215862924213,513.7498663603017 M244.00215862924213,513.7498663603017 L248.64111207106905,512.6164234758153 M248.64111207106905,512.6164234758153 L252.91671487143103,510.99660400315264 M252.91671487143103,510.99660400315264 L257.2022901383253,508.8237418689248 M257.2022901383253,508.8237418689248 L274.399800660142,498.877479518358 M120.61793253010507,545.2882428758178 L126.81152489562817,548.9728144087405 M126.81152489562817,548.9728144087405 L133.62607430568312,552.6431542129465 M133.62607430568312,552.6431542129465 L140.36404633687243,555.5002707530034 M140.36404633687243,555.5002707530034 L146.3502658134633,557.3723316574494 M146.3502658134633,557.3723316574494 L151.09686909402672,558.3968613681425 M151.09686909402672,558.3968613681425 L155.80164585806423,558.9992853065185 M155.80164585806423,558.9992853065185 L161.11946301734557,559.1729254333845 M161.11946301734557,559.1729254333845 L166.21093892400125,558.7863962190818 M166.21093892400125,558.7863962190818 L171.40432893085935,557.7533766685647 M171.40432893085935,557.7533766685647 L176.3193291013274,556.0876533959045 M176.3193291013274,556.0876533959045 L180.97482308159127,553.7871897730179 M180.97482308159127,553.7871897730179 L184.76829497306747,551.2200877898476 M184.76829497306747,551.2200877898476 L187.55805054269968,548.4880457152678 M187.55805054269968,548.4880457152678 L189.26598818680486,545.7694412786884 M189.26598818680486,545.7694412786884 L190.12100440018915,542.6168610127202 M190.12100440018915,542.6168610127202 L189.90883367946208,539.2893893890523 M189.90883367946208,539.2893893890523 L188.5574399996547,535.698399310332 M188.5574399996547,535.698399310332 L186.06821918299826,532.0907848395443 M186.06821918299826,532.0907848395443 L182.19165880075738,528.2511569685714 M182.19165880075738,528.2511569685714 L178.51845079720385,525.4090201006925 M178.51845079720385,525.4090201006925 L174.15362356845063,522.5568135728845 M174.15362356845063,522.5568135728845 L168.01635715273505,518.9250051404908 M168.01635715273505,518.9250051404908 L161.4263102849291,515.405497764579 M161.4263102849291,515.405497764579 L154.83451104686725,512.6450071115976 M154.83451104686725,512.6450071115976 L148.83862080209164,510.79293700995896 M148.83862080209164,510.79293700995896 L144.02576259379202,509.75948825061755 M144.02576259379202,509.75948825061755 L139.20991794842007,509.1285220682823 M139.20991794842007,509.1285220682823 L133.7839256462629,508.91295974171135 M133.7839256462629,508.91295974171135 L128.61878320037238,509.2577266616797 M128.61878320037238,509.2577266616797 L123.93202712620189,510.10937511278803 M123.93202712620189,510.10937511278803 L118.99090492016398,511.65873241513145 M118.99090492016398,511.65873241513145 L116.38516503097708,512.7870671930235 M116.38516503097708,512.7870671930235 L113.86853818350767,514.1091758762898 M113.86853818350767,514.1091758762898 L109.94808545345069,516.7284928374011 M109.94808545345069,516.7284928374011 L107.06276222905063,519.4917815918266 M107.06276222905063,519.4917815918266 L105.30597987881856,522.1974485766273 M105.30597987881856,522.1974485766273 L104.41955410906917,525.267681100843 M104.41955410906917,525.267681100843 L104.5894286492404,528.4852172282949 M104.5894286492404,528.4852172282949 L105.89463425152115,531.9624441182541 M105.89463425152115,531.9624441182541 L108.34803705078468,535.4994497529115 M108.34803705078468,535.4994497529115 L112.25637039458195,539.3590215367442 M112.25637039458195,539.3590215367442 L116.06329470830804,542.3041229251678 M116.06329470830804,542.3041229251678 L120.61793253010507,545.2882428758178 M595.3470469757096,285.0377941187699 L595.4515203207591,273.77204004819447 M595.4515203207591,273.77204004819447 L595.1859317828096,276.41165284631757 M595.1859317828096,276.41165284631757 L594.0531496497827,278.6949199327304 M594.0531496497827,278.6949199327304 L592.3093679107965,280.58335345977355 M592.3093679107965,280.58335345977355 L591.0188353513986,281.5843288021855 M591.0188353513986,281.5843288021855 L589.5590040155776,282.50790858988574 M589.4576830049455,293.7786457620487 L589.5590040155776,282.50790858988574 M587.518356941898,274.59789367862663 L587.6184188581296,263.3381022747311 M587.6184188581296,263.3381022747311 L591.4391999828038,266.5157283470537 M591.4391999828038,266.5157283470537 L593.7910702501879,269.325857746781 M593.7910702501879,269.325857746781 L594.9308571600905,271.5140589877442 M594.9308571600905,271.5140589877442 L595.4515203207591,273.77204004819447 M557.0294633184674,292.1558186878197 L557.1129131388398,280.8860060470331 M557.1129131388398,280.8860060470331 L587.6184188581296,263.3381022747311 M557.8320953058469,292.6101575216198 L557.9159908413731,281.34008601307085 M557.9159908413731,281.34008601307085 L557.1129131388398,280.8860060470331 M574.6498438585741,297.2370125055739 L574.7430424443492,285.9643060482078 M574.7430424443492,285.9643060482078 L570.1685832178719,285.49177070548507 M570.1685832178719,285.49177070548507 L565.8403506548275,284.4974308752151 M565.8403506548275,284.4974308752151 L561.7074610378756,283.06322634423435 M561.7074610378756,283.06322634423435 L557.9159908413731,281.34008601307085 M589.5590040155776,282.50790858988574 L585.7453716204823,284.30369864350274 M585.7453716204823,284.30369864350274 L581.7657532620253,285.432748822923 M581.7657532620253,285.432748822923 L578.3067778318045,285.9025581924382 M578.3067778318045,285.9025581924382 L574.7430424443492,285.9643060482078 M459.61282898943415,357.150962708471 L459.6428342402152,345.84434726843455 M459.6428342402152,345.84434726843455 L453.44426884301896,342.2974343666103 M453.41770595713893,353.6020521975219 L453.44426884301896,342.2974343666103 M488.2379096005045,366.8245032836604 L488.28382137190914,355.5124497991298 M488.28382137190914,355.5124497991298 L482.5136271637893,354.7005014966822 M482.5136271637893,354.7005014966822 L477.02922350115944,353.37701700414215 M477.02922350115944,353.37701700414215 L470.85191754917,351.2671923525125 M470.85191754917,351.2671923525125 L465.0331245994094,348.7022906231918 M465.0331245994094,348.7022906231918 L459.6428342402152,345.84434726843455 M512.9213754606558,361.7880103532961 L512.9809491106637,350.4787868894624 M512.9809491106637,350.4787868894624 L508.3462225016806,352.7566229100693 M508.3462225016806,352.7566229100693 L503.6062889779768,354.34601209461584 M503.6062889779768,354.34601209461584 L498.9663570150861,355.28149899899773 M498.9663570150861,355.28149899899773 L496.34708817762385,355.56976831323715 M496.34708817762385,355.56976831323715 L493.6497502323262,355.7019921083472 M493.6497502323262,355.7019921083472 L488.28382137190914,355.5124497991298 M521.1753176143018,347.8567812980272 L521.2393790759572,336.55540028217865 M521.2393790759572,336.55540028217865 L521.5590810774481,339.6950876859593 M521.5590810774481,339.6950876859593 L520.9398468805871,342.5000424632694 M520.9398468805871,342.5000424632694 L519.2459762298708,345.39336381571866 M519.2459762298708,345.39336381571866 L516.5107793546351,348.0950477429558 M516.5107793546351,348.0950477429558 L512.9809491106637,350.4787868894624 M505.1845510175251,331.7392314747071 L505.23967129797,320.4469501551834 M505.23967129797,320.4469501551834 L511.3476498669562,324.413530619469 M511.3476498669562,324.413530619469 L515.6000004854682,327.937325769922 M515.6000004854682,327.937325769922 L518.7302265928934,331.46043140840584 M518.7302265928934,331.46043140840584 L520.2637299198439,333.96370448383857 M520.2637299198439,333.96370448383857 L521.2393790759572,336.55540028217865 M499.04638397115644,328.2407862710977 L499.0980933818818,316.9504838668393 M499.0980933818818,316.9504838668393 L505.23967129797,320.4469501551834 M470.5492941630957,318.7874989274251 L470.5852232269255,307.5025505228815 M470.5852232269255,307.5025505228815 L476.5900000023747,308.35462098796984 M476.5900000023747,308.35462098796984 L482.2992534588544,309.7311746796925 M482.2992534588544,309.7311746796925 L488.5232146919549,311.8568179731511 M488.5232146919549,311.8568179731511 L494.0072174730412,314.26649104105496 M494.0072174730412,314.26649104105496 L499.0980933818818,316.9504838668393 M445.80625408998117,323.56907366617054 L445.82853422503734,312.28141592943035 M445.82853422503734,312.28141592943035 L450.2989172075728,310.11054221453804 M450.2989172075728,310.11054221453804 L454.86701822047803,308.6047870195722 M454.86701822047803,308.6047870195722 L459.44964705143514,307.69840591388134 M459.44964705143514,307.69840591388134 L464.6970058284472,307.28773924871547 M464.6970058284472,307.28773924871547 L467.6491809506926,307.3132128371602 M467.6491809506926,307.3132128371602 L470.5852232269255,307.5025505228815 M437.15456966091784,337.4170966405667 L437.17209535678705,326.1216064533328 M437.17209535678705,326.1216064533328 L436.8970252694414,323.1032695102697 M436.8970252694414,323.1032695102697 L437.6546305515962,320.1171776417266 M437.6546305515962,320.1171776417266 L439.4658172343652,317.2832567193265 M439.4658172343652,317.2832567193265 L442.28086072507074,314.63081405524514 M442.28086072507074,314.63081405524514 L445.82853422503734,312.28141592943035 M453.44426884301896,342.2974343666103 L447.08576437000454,338.1617186926134 M447.08576437000454,338.1617186926134 L442.66145909027955,334.4949132225251 M442.66145909027955,334.4949132225251 L439.5279355823042,330.9515392683074 M439.5279355823042,330.9515392683074 L438.0856092401683,328.57722137544215 M438.0856092401683,328.57722137544215 L437.17209535678705,326.1216064533328 M242.67560230240835,480.25475753515843 L242.58429403392284,468.87970198253305 M242.58429403392284,468.87970198253305 L274.32615263720174,487.4922148914776 M274.399800660142,498.877479518358 L274.32615263720174,487.4922148914776 M225.42008811463467,490.19870856991713 L225.31900336136547,478.81819697219066 M225.31900336136547,478.81819697219066 L242.58429403392284,468.87970198253305 M216.33604783304563,500.38171501987034 L216.22975754613145,488.99562741858193 M216.22975754613145,488.99562741858193 L217.16341266729654,486.15862346449927 M217.16341266729654,486.15862346449927 L219.11286582779212,483.4941842778834 M219.11286582779212,483.4941842778834 L221.9208820061599,481.0271354214019 M221.9208820061599,481.0271354214019 L225.31900336136547,478.81819697219066 M222.75093619760133,509.94136166016233 L222.64815542631723,498.55004971378963 M222.64815542631723,498.55004971378963 L219.38534914013434,496.21252432378657 M219.38534914013434,496.21252432378657 L217.3045672664244,493.7918780719154 M217.3045672664244,493.7918780719154 L216.3247295222451,491.4285065072347 M216.3247295222451,491.4285065072347 L216.1704742265727,490.214371301703 M216.1704742265727,490.214371301703 L216.22975754613145,488.99562741858193 M239.37671735757544,514.2278227914667 L239.28324990235043,502.8341715400878 M239.28324990235043,502.8341715400878 L235.13976320550273,502.69746494674905 M235.13976320550273,502.69746494674905 L231.1609360656077,502.0241932482501 M231.1609360656077,502.0241932482501 L227.5010817091698,500.89180808246795 M227.5010817091698,500.89180808246795 L224.96958823754747,499.7961976972878 M224.96958823754747,499.7961976972878 L222.64815542631723,498.55004971378963 M257.2022901383253,508.8237418689248 L257.1188979142647,497.43304018567 M257.1188979142647,497.43304018567 L251.87816533344144,500.01275017746286 M251.87816533344144,500.01275017746286 L247.0983715620951,501.6487153591151 M247.0983715620951,501.6487153591151 L243.28207326786318,502.45978026392964 M243.28207326786318,502.45978026392964 L239.28324990235043,502.8341715400878 M274.32615263720174,487.4922148914776 L257.1188979142647,497.43304018567 M126.81152489562817,548.9728144087405 L126.65418120371976,537.5602754825823 M126.65418120371976,537.5602754825823 L120.45714905465655,533.8777006566413 M120.61793253010507,545.2882428758178 L120.45714905465655,533.8777006566413 M155.80164585806423,558.9992853065185 L155.6605345182708,547.5813204501228 M155.6605345182708,547.5813204501228 L149.85453943039192,546.7791564992888 M149.85453943039192,546.7791564992888 L144.34920574081528,545.4441652698126 M144.34920574081528,545.4441652698126 L138.16462432267957,543.2988167110113 M138.16462432267957,543.2988167110113 L132.1749142428277,540.5901201235063 M132.1749142428277,540.5901201235063 L126.65418120371976,537.5602754825823 M180.97482308159127,553.7871897730179 L180.84800373357234,542.3720441249197 M180.84800373357234,542.3720441249197 L176.10528268589215,544.7061575349546 M176.10528268589215,544.7061575349546 L171.27976610066787,546.3340244593612 M171.27976610066787,546.3340244593612 L166.51935838783197,547.306853772842 M166.51935838783197,547.306853772842 L161.10748917372084,547.7521276049308 M161.10748917372084,547.7521276049308 L155.6605345182708,547.5813204501228 M189.90883367946208,539.2893893890523 L189.78723237358642,527.8821011861507 M189.78723237358642,527.8821011861507 L190.0066284667213,531.1328491978445 M190.0066284667213,531.1328491978445 L189.28355678072927,534.0370450574258 M189.28355678072927,534.0370450574258 L187.4617120175756,537.0428716800952 M187.4617120175756,537.0428716800952 L184.55879125269212,539.8742433391603 M184.55879125269212,539.8742433391603 L180.84800373357234,542.3720441249197 M174.15362356845063,522.5568135728845 L174.0233462416939,511.1586225805855 M174.0233462416939,511.1586225805855 L180.11414601616113,515.2765598284202 M180.11414601616113,515.2765598284202 L184.3291288908543,518.9348589125707 M184.3291288908543,518.9348589125707 L187.40083860570735,522.5924904165342 M187.40083860570735,522.5924904165342 L188.87970033658797,525.1913895161038 M188.87970033658797,525.1913895161038 L189.78723237358642,527.8821011861507 M168.01635715273505,518.9250051404908 L167.8826704757614,507.5287927432876 M167.8826704757614,507.5287927432876 L174.0233462416939,511.1586225805855 M139.20991794842007,509.1285220682823 L139.06015576992303,497.7376539498451 M139.06015576992303,497.7376539498451 L145.12712981099736,498.59736292541913 M145.12712981099736,498.59736292541913 L150.879934389108,500.0029916856264 M150.879934389108,500.0029916856264 L157.12890567330396,502.1826004938687 M157.12890567330396,502.1826004938687 L162.71688503322474,504.70850663214156 M162.71688503322474,504.70850663214156 L167.8826704757614,507.5287927432876 M113.86853818350767,514.1091758762898 L113.70444267234672,502.71558934856415 M113.70444267234672,502.71558934856415 L118.31583367444273,500.4705779903811 M118.31583367444273,500.4705779903811 L123.00320800525037,498.9125735978699 M123.00320800525037,498.9125735978699 L127.7109672324591,497.9666844908792 M127.7109672324591,497.9666844908792 L133.0935251057075,497.53167115244094 M133.0935251057075,497.53167115244094 L136.08691013127986,497.55143216820386 M136.08691013127986,497.55143216820386 L139.06015576992303,497.7376539498451 M104.5894286492404,528.4852172282949 L104.41987459409768,517.0837995637534 M104.41987459409768,517.0837995637534 L104.24094236571864,513.9502459846253 M104.24094236571864,513.9502459846253 L105.11312893455005,510.85019878452476 M105.11312893455005,510.85019878452476 L107.05365356083792,507.9081791903886 M107.05365356083792,507.9081791903886 L110.01091506315339,505.154571732885 M110.01091506315339,505.154571732885 L113.70444267234672,502.71558934856415 M120.45714905465655,533.8777006566413 L114.11699792983444,529.5838599378449 M114.11699792983444,529.5838599378449 L109.73201452411598,525.7769106594048 M109.73201452411598,525.7769106594048 L106.65812306659609,522.0981753540652 M106.65812306659609,522.0981753540652 L105.26822164811989,519.633176902913 M105.26822164811989,519.633176902913 L104.41987459409768,517.0837995637534" stroke="black"  stroke-width="4"  fill="red"/></svg>